<svg id="그룹_843" data-name="그룹 843" xmlns="http://www.w3.org/2000/svg" width="128.942" height="39.682" viewBox="0 0 128.942 39.682">
  <path id="패스_127" data-name="패스 127" d="M45.456,284.431l12.906,10.255,113.2-9.966.093-.29Z" transform="translate(-45.456 -255.005)" fill="#0070c3"/>
  <path id="패스_128" data-name="패스 128" d="M90.634,277.058a9.29,9.29,0,0,0-5.486-4.23,30.077,30.077,0,0,0-9.261-1.178h-18.4l-6.439,25.571H69.493a42.692,42.692,0,0,0,7.055-.559,23.516,23.516,0,0,0,5.04-1.392,17.758,17.758,0,0,0,3.941-2.323,16.976,16.976,0,0,0,3.481-3.708,13.961,13.961,0,0,0,1.725-3.34,15.334,15.334,0,0,0,.534-1.716,9.679,9.679,0,0,0-.635-7.124M78.3,284c0,.021-.011.039-.016.064a9.627,9.627,0,0,1-.653,1.831,7.1,7.1,0,0,1-.916,1.417,5.759,5.759,0,0,1-2.487,1.758,16.287,16.287,0,0,1-4.764.566s-2.65,0-3.421,0l2.68-10.833c.867,0,3.747,0,3.747,0a14.654,14.654,0,0,1,4.161.4,2.389,2.389,0,0,1,1.235.824,3.2,3.2,0,0,1,.6,1.666A6.793,6.793,0,0,1,78.3,284Z" transform="translate(-38.188 -271.625)" fill="#004b9e"/>
  <path id="패스_129" data-name="패스 129" d="M105.292,288.765a7.926,7.926,0,0,0-.294-3.481c-1.109-2.922-3.952-4.371-9.5-4.371H86.578c-1.215,0-2.411-.094-2.784-1.178-.184-.531.168-1.129,1.385-1.129h20.759l1.794-6.956H84.308c-4.9.057-7.233.451-9.376,1.689A7.611,7.611,0,0,0,71,279.471a6.791,6.791,0,0,0,2.641,6.2c1.967,1.61,5.786,2.241,9.192,2.241h8.576c1.217,0,1.636.7,1.389,1.2-.435.876-1.389,1.127-2.606,1.127H69.691l-1.783,6.984H91.772a20.026,20.026,0,0,0,9.358-2.441,8.851,8.851,0,0,0,4.063-5.512l.1-.5Z" transform="translate(-16.26 -271.625)" fill="#004b9e"/>
  <path id="패스_130" data-name="패스 130" d="M85.748,291.966a8.8,8.8,0,0,0,4.819,4.2c2.418,1.01,6.193.989,9.837.973h16.144l1.751-7.113c-.867,0-14.168,0-14.168,0a14.548,14.548,0,0,1-4.129-.393,2.4,2.4,0,0,1-1.231-.821,3.309,3.309,0,0,1-.593-1.7,5.921,5.921,0,0,1,.343-2.342l.023-.062a6.874,6.874,0,0,1,.952-1.822,7.415,7.415,0,0,1,1.318-1.408,10.255,10.255,0,0,1,3.715-1.742,34.887,34.887,0,0,1,6.059-.566s10.028,0,10.794,0l1.932-7.525H109.354a67.5,67.5,0,0,0-8.675.479,33.9,33.9,0,0,0-5.394,1.307,18.949,18.949,0,0,0-4.463,2.459,16.863,16.863,0,0,0-3.46,3.683,14.36,14.36,0,0,0-1.709,3.368,15.343,15.343,0,0,0-.536,1.707A10.258,10.258,0,0,0,85.748,291.966Z" transform="translate(5.628 -271.639)" fill="#004b9e"/>
</svg>
